<svg width="16" height="17" viewBox="0 0 16 17" fill="none" xmlns="http://www.w3.org/2000/svg">
<path d="M6.58666 7.08667C6.39016 7.26977 6.23256 7.49057 6.12324 7.7359C6.01393 7.98123 5.95515 8.24607 5.95042 8.51461C5.94568 8.78315 5.99508 9.04989 6.09567 9.29893C6.19625 9.54796 6.34597 9.77419 6.53589 9.96411C6.72581 10.154 6.95203 10.3037 7.20107 10.4043C7.4501 10.5049 7.71685 10.5543 7.98539 10.5496C8.25393 10.5448 8.51876 10.4861 8.76409 10.3768C9.00943 10.2674 9.23023 10.1098 9.41333 9.91334" stroke="#6B7280" stroke-linecap="round" stroke-linejoin="round"/>
<path d="M7.15334 3.88668C7.43421 3.85168 7.71696 3.83387 8 3.83334C12.6667 3.83334 14.6667 8.50001 14.6667 8.50001C14.3686 9.13809 13.9948 9.73797 13.5533 10.2867" stroke="#6B7280" stroke-linecap="round" stroke-linejoin="round"/>
<path d="M4.40666 4.90668C3.08083 5.80976 2.01991 7.05018 1.33333 8.50001C1.33333 8.50001 3.33333 13.1667 8 13.1667C9.27727 13.1701 10.5272 12.7967 11.5933 12.0933" stroke="#6B7280" stroke-linecap="round" stroke-linejoin="round"/>
<path d="M1.33333 1.83334L14.6667 15.1667" stroke="#6B7280" stroke-linecap="round" stroke-linejoin="round"/>
</svg>
