<svg width="16" height="17" viewBox="0 0 16 17" fill="none" xmlns="http://www.w3.org/2000/svg">
<path d="M10.6667 14.5V13.1667C10.6667 12.4594 10.3857 11.7811 9.88561 11.281C9.38552 10.781 8.70724 10.5 8 10.5H3.99999C3.29275 10.5 2.61447 10.781 2.11438 11.281C1.61428 11.7811 1.33333 12.4594 1.33333 13.1667V14.5" stroke="#6B7280" stroke-linecap="round" stroke-linejoin="round"/>
<path d="M6 7.83333C7.47275 7.83333 8.66666 6.63943 8.66666 5.16667C8.66666 3.69391 7.47275 2.5 6 2.5C4.52724 2.5 3.33333 3.69391 3.33333 5.16667C3.33333 6.63943 4.52724 7.83333 6 7.83333Z" stroke="#6B7280" stroke-linecap="round" stroke-linejoin="round"/>
<path d="M14.6667 14.5V13.1667C14.6662 12.5758 14.4696 12.0019 14.1076 11.5349C13.7456 11.0679 13.2388 10.7344 12.6667 10.5867" stroke="#6B7280" stroke-linecap="round" stroke-linejoin="round"/>
<path d="M10.6667 2.58667C11.2403 2.73354 11.7487 3.06714 12.1118 3.53488C12.4748 4.00262 12.6719 4.57789 12.6719 5.17C12.6719 5.76212 12.4748 6.33739 12.1118 6.80513C11.7487 7.27287 11.2403 7.60647 10.6667 7.75334" stroke="#6B7280" stroke-linecap="round" stroke-linejoin="round"/>
</svg>
